<?xml version="1.0" encoding="UTF-8"?>
<svg width="168px" height="47px" viewBox="0 0 168 47" version="1.1" xmlns="http://www.w3.org/2000/svg" xmlns:xlink="http://www.w3.org/1999/xlink">
    <!-- Generator: Sketch 42 (36781) - http://www.bohemiancoding.com/sketch -->
    <title>amy</title>
    <desc>Created with Sketch.</desc>
    <defs></defs>
    <g id="Symbols" stroke="none" stroke-width="1" fill="none" fill-rule="evenodd">
        <g id="amy" stroke="#FFFFFF" fill-rule="nonzero" fill="#FFFFFF">
            <path d="M62.436205,33.477569 L62.436205,26.585571 L51.429937,24.241779 L51.746201,22.775076 L62.436205,25.051518 L62.436205,0 L64.890447,0 L84.046285,11.1089922 L103.138377,0 L105.656366,0 L105.656366,24.960956 L115.921096,22.775076 L116.23736,24.241779 L105.656366,26.495008 L105.656366,33.477569 L115.972571,33.477569 L115.972571,34.977569 L105.656366,34.977569 L105.656366,46.084633 L103.935209,46.084633 L103.919531,34.977569 L97.859718,34.977569 L97.859718,33.477569 L103.917413,33.477569 L103.908083,26.867306 L98.034602,28.118067 L97.718338,26.651364 L103.905918,25.333715 L103.872713,1.810412 L84.685001,12.8877527 L83.376946,12.666192 L64.157361,1.810412 L64.157361,25.41804 L69.948959,26.651364 L69.632695,28.118067 L64.157361,26.952092 L64.157361,33.477569 L69.052877,33.477569 L69.052877,34.977569 L64.157361,34.977569 L64.157361,46.084633 L62.436205,46.084633 L62.436205,34.977569 L52.449429,34.977569 L52.449429,33.477569 L62.436205,33.477569 Z M29.769639,32.316216 L18.4227531,1.6188122 L7.0439938,32.316216 L1.8805232,46.084633 L0,46.084633 L17.370935,0 L19.4745711,0 L36.845506,46.084633 L34.964983,46.084633 L29.769639,32.316216 Z M160.584686,13.768417 L165.78003,0 L167.660553,0 L150.289618,46.084633 L148.185982,46.084633 L130.815047,0 L132.69557,0 L137.859041,13.768417 L149.2378,44.46582 L160.584686,13.768417 Z" id="Combined-Shape"></path>
        </g>
    </g>
</svg>