<svg version="1.1" baseProfile="tiny" id="Layer_1" xmlns="http://www.w3.org/2000/svg" xmlns:xlink="http://www.w3.org/1999/xlink" x="0px" y="0px" viewBox="0 0 13.5 12" xml:space="preserve">
<g>
<g>
<g>
<path class="svg__curve" fill="#4a4d51" d="M11.9,6.8H4.5C4.2,6.8,4,6.6,4,6.4L3,3c0,0,0-0.1,0-0.2L2.4,1.1H0.5C0.2,1.1,0,0.8,0,0.5
				C0,0.2,0.2,0,0.5,0h2.3c0.2,0,0.4,0.2,0.5,0.4l0.5,1.8h9.1c0.2,0,0.3,0.1,0.4,0.2c0.1,0.1,0.1,0.3,0.1,0.5l-1,3.5
				C12.4,6.6,12.2,6.8,11.9,6.8z M4.9,5.7h6.7l0.7-2.4H4.2L4.9,5.7z"></path>
</g>
</g>
<g>
<g>
<path class="svg__curve" fill="#4a4d51" d="M11.1,9H5.1C4.9,9,4.7,8.9,4.6,8.6L4,6.4C3.9,6.1,4,5.8,4.3,5.7C4.6,5.6,4.9,5.8,5,6.1L5.5,8h5.5
				c0.3,0,0.5,0.2,0.5,0.5C11.6,8.8,11.4,9,11.1,9z"></path>
</g>
</g>
<g>
<g>
<circle class="svg__curve" fill="#4a4d51" cx="6.1" cy="11.1" r="0.9"></circle>
</g>
</g>
<g>
<g>
<circle class="svg__curve" fill="#4a4d51" cx="10.1" cy="11.1" r="0.9"></circle>
</g>
</g>
</g>
</svg>
