<?xml version="1.0" encoding="UTF-8"?>
<svg width="282px" height="44px" viewBox="0 0 282 44" version="1.1" xmlns="http://www.w3.org/2000/svg" xmlns:xlink="http://www.w3.org/1999/xlink">
    <!-- Generator: Sketch 43.2 (39069) - http://www.bohemiancoding.com/sketch -->
    <title>dclogo</title>
    <desc>Created with Sketch.</desc>
    <defs></defs>
    <g id="Page-1" stroke="none" stroke-width="1" fill="none" fill-rule="evenodd">
        <g id="dclogo" fill="#4A4D51">
            <g id="gmlogo" fill-rule="nonzero">
                <g id="Layer_1">
                    <g id="Group">
                        <path d="M49.0211679,4.16666667 C49.6364964,3.54166667 50.4569343,3.125 51.2773723,3.125 L51.6875912,3.125 C52.5080292,3.125 53.3284672,3.33333333 53.9437956,3.75 C54.5591241,4.16666667 54.9693431,4.79166667 54.9693431,5.41666667 C54.9693431,6.04166667 55.1744526,6.25 55.5846715,6.45833333 C55.9948905,6.66666667 56.2,6.875 56.610219,6.875 C57.020438,6.875 57.4306569,6.66666667 57.6357664,6.45833333 C58.0459854,6.25 58.0459854,5.83333333 58.0459854,5.20833333 L58.0459854,5.41666667 C58.0459854,4.58333333 57.8408759,3.95833333 57.4306569,3.33333333 C57.020438,2.70833333 56.610219,2.08333333 55.9948905,1.66666667 C55.379562,1.25 54.7642336,0.833333333 53.9437956,0.625 C53.5335766,0.208333333 52.7131387,0 51.6875912,0 L51.2773723,0 C50.4569343,0 49.4313869,0.208333333 48.8160584,0.416666667 C47.9956204,0.833333333 47.380292,1.25 46.7649635,1.875 C46.149635,2.5 45.7394161,3.125 45.3291971,3.95833333 C44.9189781,4.79166667 44.7138686,5.625 44.7138686,6.45833333 L44.7138686,17.2916667 C44.7138686,18.125 44.9189781,19.1666667 45.3291971,19.7916667 C45.7394161,20.625 46.149635,21.25 46.7649635,21.875 C47.380292,22.5 47.9956204,22.9166667 48.8160584,23.3333333 C49.6364964,23.75 50.4569343,23.75 51.4824818,23.75 L51.8927007,23.75 C52.7131387,23.75 53.7386861,23.5416667 54.3540146,23.125 C55.1744526,22.7083333 55.789781,22.2916667 56.4051095,21.6666667 C57.020438,21.0416667 57.4306569,20.4166667 57.8408759,19.5833333 C58.2510949,18.75 58.4562044,17.9166667 58.4562044,16.875 L58.4562044,12.2916667 C58.4562044,11.875 58.2510949,11.4583333 58.0459854,11.0416667 C57.6357664,10.625 57.4306569,10.625 56.8153285,10.625 L52.5080292,10.625 C51.8927007,10.625 51.4824818,10.8333333 51.2773723,11.0416667 C51.0722628,11.4583333 50.8671533,11.6666667 50.8671533,12.0833333 C50.8671533,12.5 51.0722628,12.9166667 51.2773723,13.125 C51.4824818,13.5416667 51.8927007,13.5416667 52.5080292,13.5416667 L55.1744526,13.5416667 L55.1744526,17.0833333 C55.1744526,17.5 55.1744526,17.9166667 54.9693431,18.3333333 C54.7642336,18.75 54.5591241,19.1666667 54.1489051,19.375 C53.9437956,19.5833333 53.5335766,20 53.1233577,20.2083333 C52.7131387,20.4166667 52.3029197,20.4166667 51.8927007,20.4166667 L51.4824818,20.4166667 C50.6620438,20.4166667 49.8416058,20 49.2262774,19.375 C48.6109489,18.75 48.2007299,17.9166667 48.2007299,17.0833333 L48.2007299,6.45833333 C47.9956204,5.625 48.4058394,4.79166667 49.0211679,4.16666667 Z" id="Shape"></path>
                        <path d="M84.5051095,11.0416667 C84.9153285,10.4166667 85.120438,9.79166667 85.3255474,9.16666667 C85.5306569,8.54166667 85.5306569,7.70833333 85.5306569,7.08333333 L85.5306569,6.875 C85.5306569,6.04166667 85.3255474,5 84.9153285,4.375 C84.5051095,3.54166667 84.0948905,2.91666667 83.479562,2.29166667 C82.8642336,1.66666667 82.2489051,1.25 81.4284672,0.833333333 C80.6080292,0.416666667 79.7875912,0.208333333 78.9671533,0.208333333 L73.4291971,0.208333333 C73.0189781,0.208333333 72.6087591,0.416666667 72.4036496,0.625 C71.9934307,1.04166667 71.9934307,1.25 71.9934307,1.66666667 L71.9934307,22.2916667 C71.9934307,22.9166667 72.1985401,23.3333333 72.4036496,23.5416667 C72.8138686,23.75 73.0189781,23.9583333 73.6343066,23.9583333 C74.0445255,23.9583333 74.4547445,23.75 74.659854,23.5416667 C75.070073,23.3333333 75.070073,22.9166667 75.070073,22.2916667 L75.070073,13.75 L77.7364964,13.75 L82.0437956,23.125 C82.2489051,23.5416667 82.4540146,23.75 82.6591241,23.75 C82.8642336,23.9583333 83.0693431,23.9583333 83.479562,23.9583333 C84.0948905,23.9583333 84.5051095,23.75 84.710219,23.5416667 C84.9153285,23.3333333 85.120438,22.9166667 85.120438,22.2916667 C85.120438,22.0833333 85.120438,21.875 84.9153285,21.6666667 L81.0182482,13.5416667 C82.0437956,13.3333333 82.6591241,12.9166667 83.2744526,12.5 C83.6846715,12.0833333 84.0948905,11.6666667 84.5051095,11.0416667 Z M82.4540146,7.08333333 C82.4540146,7.91666667 82.2489051,8.75 81.6335766,9.375 C81.0182482,10 80.1978102,10.4166667 79.3773723,10.4166667 L75.2751825,10.4166667 L75.2751825,3.54166667 L79.1722628,3.54166667 C79.9927007,3.54166667 80.8131387,3.95833333 81.4284672,4.58333333 C82.0437956,5.20833333 82.4540146,6.04166667 82.4540146,7.08333333 L82.4540146,7.08333333 Z" id="Shape"></path>
                        <path d="M110.554015,1.875 C109.938686,1.25 109.323358,0.833333333 108.50292,0.416666667 C107.682482,0.208333333 106.862044,0 105.836496,0 L105.631387,0 C104.810949,0 103.785401,0.208333333 102.964964,0.416666667 C102.144526,0.833333333 101.529197,1.25 100.913869,1.875 C100.29854,2.5 99.8883212,3.125 99.4781022,3.95833333 C99.0678832,4.79166667 98.8627737,5.625 98.8627737,6.45833333 L98.8627737,17.2916667 C98.8627737,18.125 99.0678832,19.1666667 99.4781022,19.7916667 C99.8883212,20.625 100.29854,21.25 100.913869,21.875 C101.529197,22.5 102.144526,22.9166667 102.964964,23.3333333 C103.785401,23.75 104.605839,23.75 105.426277,23.75 L105.836496,23.75 C106.656934,23.75 107.682482,23.5416667 108.29781,23.3333333 C109.118248,22.9166667 109.733577,22.5 110.348905,21.875 C110.964234,21.25 111.374453,20.625 111.784672,19.7916667 C112.194891,18.9583333 112.4,18.125 112.4,17.2916667 L112.4,6.45833333 C112.4,5.625 112.194891,4.79166667 111.784672,3.95833333 C111.579562,3.125 111.169343,2.5 110.554015,1.875 Z M109.323358,17.5 C109.323358,18.5416667 108.913139,19.1666667 108.29781,19.7916667 C107.682482,20.4166667 106.862044,20.8333333 106.041606,20.8333333 L105.631387,20.8333333 C104.810949,20.8333333 103.990511,20.4166667 103.375182,19.7916667 C102.759854,19.1666667 102.349635,18.3333333 102.349635,17.5 L102.349635,6.45833333 C102.349635,5.625 102.759854,4.79166667 103.375182,4.16666667 C103.990511,3.54166667 104.810949,3.125 105.631387,3.125 L106.041606,3.125 C106.862044,3.125 107.682482,3.33333333 108.29781,3.95833333 C108.913139,4.58333333 109.323358,5.41666667 109.323358,6.25 L109.323358,17.5 Z" id="Shape"></path>
                        <path d="M133.936496,22.5 L138.859124,2.08333333 L138.859124,1.66666667 C138.859124,1.25 138.654015,0.833333333 138.448905,0.625 C138.038686,0.208333333 137.628467,0 137.218248,0 C136.808029,0 136.60292,0 136.39781,0.208333333 C136.192701,0.416666667 135.987591,0.625 135.782482,1.25 L132.090511,16.875 L128.39854,1.25 C128.193431,0.833333333 127.988321,0.416666667 127.783212,0.208333333 C127.578102,0 127.167883,0 126.962774,0 C126.552555,0 126.142336,0.208333333 125.732117,0.416666667 C125.321898,0.833333333 125.116788,1.25 125.116788,1.66666667 L125.116788,2.08333333 L130.039416,22.7083333 C130.244526,23.125 130.449635,23.5416667 130.654745,23.75 C131.064964,23.9583333 131.475182,24.1666667 131.885401,24.1666667 C132.29562,24.1666667 132.705839,23.9583333 133.116058,23.75 C133.526277,23.3333333 133.731387,23.125 133.936496,22.5 Z" id="Shape"></path>
                        <path d="M153.832117,23.75 L164.087591,23.75 C164.70292,23.75 165.113139,23.5416667 165.318248,23.3333333 C165.523358,22.9166667 165.728467,22.7083333 165.728467,22.2916667 C165.728467,21.875 165.523358,21.4583333 165.318248,21.25 C165.113139,20.8333333 164.70292,20.8333333 164.087591,20.8333333 L155.472993,20.8333333 L155.472993,13.3333333 L161.421168,13.3333333 C162.036496,13.3333333 162.446715,13.125 162.651825,12.9166667 C162.856934,12.5 163.062044,12.2916667 163.062044,11.875 C163.062044,11.4583333 162.856934,11.0416667 162.651825,10.8333333 C162.446715,10.4166667 162.036496,10.4166667 161.421168,10.4166667 L155.472993,10.4166667 L155.472993,3.54166667 L164.087591,3.54166667 C164.70292,3.54166667 165.113139,3.33333333 165.318248,3.125 C165.523358,2.70833333 165.728467,2.5 165.728467,2.08333333 C165.728467,1.66666667 165.523358,1.25 165.318248,1.04166667 C165.113139,0.625 164.70292,0.625 164.087591,0.625 L153.832117,0.625 C153.421898,0.625 153.011679,0.833333333 152.806569,1.04166667 C152.39635,1.45833333 152.39635,1.66666667 152.39635,2.08333333 L152.39635,22.5 C152.39635,22.9166667 152.60146,23.3333333 152.806569,23.5416667 C153.011679,23.5416667 153.421898,23.75 153.832117,23.75 Z" id="Shape"></path>
                        <path d="M194.238686,23.5416667 C194.648905,23.75 194.854015,23.9583333 195.264234,23.9583333 C195.674453,23.9583333 196.084672,23.75 196.289781,23.5416667 C196.7,23.3333333 196.7,22.9166667 196.7,22.2916667 L196.7,1.66666667 C196.7,1.25 196.494891,0.833333333 196.289781,0.625 C196.289781,0.208333333 195.879562,0 195.469343,0 L195.059124,0 C194.648905,0 194.238686,0 194.033577,0.208333333 C193.828467,0.416666667 193.623358,0.625 193.418248,1.04166667 L188.49562,12.2916667 L183.572993,1.04166667 C183.162774,0.416666667 182.752555,0 181.932117,0 L181.521898,0 C181.111679,0 180.70146,0.208333333 180.49635,0.416666667 C180.086131,0.833333333 180.086131,1.04166667 180.086131,1.45833333 L180.086131,22.0833333 C180.086131,22.7083333 180.291241,23.125 180.49635,23.3333333 C180.906569,23.5416667 181.111679,23.75 181.521898,23.75 C181.932117,23.75 182.342336,23.5416667 182.547445,23.3333333 C182.957664,23.125 182.957664,22.7083333 182.957664,22.0833333 L182.957664,7.5 L186.649635,16.0416667 C186.854745,16.4583333 187.059854,16.6666667 187.264964,16.875 C187.470073,17.0833333 187.880292,17.0833333 188.290511,17.0833333 C188.70073,17.0833333 188.905839,17.0833333 189.316058,16.875 C189.726277,16.6666667 189.931387,16.4583333 189.931387,16.0416667 L193.623358,7.5 L193.623358,22.0833333 C193.828467,22.9166667 194.033577,23.3333333 194.238686,23.5416667 Z" id="Shape"></path>
                        <path d="M219.672263,0.208333333 C219.262044,0 218.851825,0 218.441606,0 C218.031387,0 217.621168,0.208333333 217.416058,0.416666667 C217.005839,0.625 216.80073,1.04166667 216.59562,1.45833333 L210.237226,22.0833333 L210.237226,22.7083333 C210.237226,23.125 210.442336,23.5416667 210.647445,23.75 C210.852555,23.9583333 211.262774,24.1666667 211.878102,24.1666667 C212.288321,24.1666667 212.493431,24.1666667 212.90365,23.9583333 C213.313869,23.75 213.518978,23.5416667 213.518978,23.125 L214.954745,18.5416667 L222.338686,18.5416667 L223.774453,23.125 C223.979562,23.5416667 224.184672,23.75 224.389781,23.9583333 C224.594891,24.1666667 225.005109,24.1666667 225.210219,24.1666667 C225.620438,24.1666667 226.030657,23.9583333 226.440876,23.75 C226.645985,23.5416667 226.851095,23.125 226.851095,22.7083333 L226.851095,22.2916667 L220.492701,1.66666667 C220.287591,0.833333333 220.082482,0.416666667 219.672263,0.208333333 Z M215.775182,15 L218.441606,6.04166667 L221.108029,15 L215.775182,15 Z" id="Shape"></path>
                        <path d="M249.413139,0.625 C248.592701,0.208333333 247.772263,0.208333333 246.951825,0.208333333 L241.618978,0.208333333 C241.208759,0.208333333 240.79854,0.416666667 240.593431,0.625 C240.183212,1.04166667 240.183212,1.25 240.183212,1.66666667 L240.183212,22.0833333 C240.183212,22.5 240.388321,22.9166667 240.593431,23.125 C241.00365,23.5416667 241.208759,23.5416667 241.618978,23.5416667 L246.951825,23.5416667 C247.772263,23.5416667 248.79781,23.3333333 249.413139,23.125 C250.233577,22.7083333 250.848905,22.2916667 251.464234,21.875 C252.079562,21.4583333 252.489781,20.625 252.9,19.7916667 C253.310219,18.9583333 253.515328,18.125 253.515328,17.0833333 L253.515328,6.875 C253.515328,5.83333333 253.310219,5 252.9,4.16666667 C252.489781,3.33333333 252.079562,2.70833333 251.464234,2.08333333 C251.054015,1.45833333 250.233577,1.04166667 249.413139,0.625 Z M250.233577,17.0833333 C250.233577,17.5 250.233577,17.9166667 250.028467,18.3333333 C249.823358,18.75 249.618248,19.1666667 249.208029,19.375 C249.00292,19.5833333 248.592701,20 248.182482,20.2083333 C247.772263,20.4166667 247.362044,20.4166667 246.951825,20.4166667 L243.259854,20.4166667 L243.259854,3.54166667 L246.951825,3.54166667 C247.362044,3.54166667 247.772263,3.54166667 248.182482,3.75 C248.592701,3.95833333 249.00292,4.16666667 249.208029,4.58333333 C249.413139,4.79166667 249.823358,5.20833333 250.028467,5.625 C250.233577,6.04166667 250.233577,6.45833333 250.233577,6.875 L250.233577,17.0833333 Z" id="Shape"></path>
                        <path d="M279.154015,3.54166667 C279.769343,3.54166667 280.179562,3.33333333 280.384672,3.125 C280.589781,2.70833333 280.794891,2.5 280.794891,2.08333333 L280.794891,2.08333333 C280.794891,1.66666667 280.589781,1.25 280.384672,1.04166667 C280.179562,0.625 279.769343,0.625 279.154015,0.625 L268.89854,0.625 C268.488321,0.625 268.078102,0.833333333 267.872993,1.04166667 C267.462774,1.45833333 267.462774,1.66666667 267.462774,2.08333333 L267.462774,22.5 C267.462774,22.9166667 267.667883,23.3333333 267.872993,23.5416667 C268.283212,23.9583333 268.488321,23.9583333 268.89854,23.9583333 L279.154015,23.9583333 C279.769343,23.9583333 280.179562,23.75 280.384672,23.5416667 C280.589781,23.125 280.794891,22.9166667 280.794891,22.5 L280.794891,22.5 C280.794891,22.0833333 280.589781,21.6666667 280.384672,21.4583333 C280.179562,21.0416667 279.769343,21.0416667 279.154015,21.0416667 L270.539416,21.0416667 L270.539416,13.3333333 L276.487591,13.3333333 C277.10292,13.3333333 277.513139,13.125 277.718248,12.9166667 C277.923358,12.5 278.128467,12.2916667 278.128467,11.875 C278.128467,11.4583333 277.923358,11.0416667 277.718248,10.8333333 C277.513139,10.4166667 277.10292,10.4166667 276.487591,10.4166667 L270.539416,10.4166667 L270.539416,3.54166667 L279.154015,3.54166667 Z" id="Shape"></path>
                        <path d="M16.2036496,23.3333333 L16.2036496,23.3333333 L16.2036496,23.125 C16.2036496,23.3333333 13.9474453,17.5 13.1270073,16.6666667 C11.2810219,14.7916667 9.22992701,15 7.79416058,15 L0.820437956,15 C0.410218978,15 0,15.2083333 0,15.625 L0,15.625 L0,15.8333333 C0,15.8333333 2.25620438,21.6666667 3.07664234,22.2916667 C4.71751825,23.9583333 6.15328467,23.9583333 8.40948905,23.9583333 L15.5883212,23.9583333 C15.9985401,23.9583333 16.2036496,23.75 16.2036496,23.3333333 Z" id="Shape"></path>
                        <path d="M28.1,16.0416667 C28.1,11.6666667 23.5875912,2.08333333 22.9722628,0.416666667 C22.9722628,0.208333333 22.7671533,0 22.3569343,0 C22.1518248,0 21.7416058,0.208333333 21.7416058,0.416666667 C18.6649635,7.70833333 16.4087591,13.125 16.4087591,13.125 C16.2036496,13.75 15.9985401,14.375 16.2036496,15 C16.4087591,15.625 17.6394161,18.125 18.459854,20.2083333 C19.6905109,23.125 19.8956204,23.9583333 22.5620438,23.9583333 C25.8437956,23.9583333 28.1,21.0416667 28.1,16.0416667 Z" id="Shape"></path>
                    </g>
                </g>
            </g>
            <path d="M1,43.215201 L1,31.7778024 L3.40007587,31.7778024 C4.55073528,31.7778024 5.4593969,31.8913851 6.12608797,32.1185539 C6.84216357,32.3407842 7.49156033,32.7185702 8.07429771,33.251923 C9.25458784,34.3285057 9.84472405,35.7433511 9.84472405,37.4965017 C9.84472405,39.2545907 9.22989595,40.6768437 8.00022129,41.7633032 C7.38291474,42.306533 6.73598718,42.6843189 6.0594192,42.8966724 C5.42729729,43.1090258 4.53098162,43.215201 3.37044531,43.215201 L1,43.215201 Z M2.72598049,41.5929275 L3.50378285,41.5929275 C4.27911988,41.5929275 4.92357826,41.5114442 5.43717731,41.3484753 C5.95077636,41.1756295 6.41498392,40.9015495 6.82981392,40.5262271 C7.67922774,39.75089 8.10392828,38.7409917 8.10392828,37.4965017 C8.10392828,36.2421348 7.68416612,35.2248288 6.84462921,34.4445533 C6.08904599,33.7482315 4.97544167,33.4000759 3.50378285,33.4000759 L2.72598049,33.4000759 L2.72598049,41.5929275 Z M28.7293426,33.4000759 L24.1440125,33.4000759 L24.1440125,36.1483109 L28.5960051,36.1483109 L28.5960051,37.7705844 L24.1440125,37.7705844 L24.1440125,41.5929275 L28.7293426,41.5929275 L28.7293426,43.215201 L22.418032,43.215201 L22.418032,31.7778024 L28.7293426,31.7778024 L28.7293426,33.4000759 Z M47.865821,33.4815599 L46.4657767,34.3112158 C46.2040388,33.8568782 45.9546507,33.5605755 45.7176049,33.4222988 C45.4706823,33.2642683 45.1521569,33.1852543 44.7620192,33.1852543 C44.2829893,33.1852543 43.8854498,33.3210597 43.5693889,33.5926746 C43.2533279,33.859351 43.0952998,34.1951607 43.0952998,34.6001138 C43.0952998,35.1581589 43.5101236,35.6075514 44.3397836,35.9483046 L45.4805604,36.414986 C46.4089895,36.7903084 47.0880165,37.248343 47.5176618,37.7891035 C47.9473072,38.329864 48.1621267,38.9928413 48.1621267,39.7780553 C48.1621267,40.8299456 47.8115018,41.6991002 47.1102416,42.3855451 C46.4040429,43.0769284 45.5274807,43.4226149 44.4805288,43.4226149 C43.4878999,43.4226149 42.6681291,43.1287814 42.0211918,42.5411056 C41.3841314,41.9534297 40.986592,41.1262514 40.8285615,40.0595457 L42.5767649,39.6743483 C42.6557801,40.3459778 42.7940547,40.8101854 42.9915928,41.0669849 C43.3471614,41.5608302 43.8656911,41.8077491 44.5471976,41.8077491 C45.0854889,41.8077491 45.5324121,41.6274983 45.8879807,41.2669912 C46.2435493,40.9064842 46.4213309,40.4496842 46.4213309,39.8965775 C46.4213309,39.6743472 46.390466,39.4706391 46.3287354,39.2854471 C46.2670047,39.1002551 46.1707063,38.9298811 46.0398373,38.7743198 C45.9089684,38.6187586 45.7398289,38.4730764 45.5324139,38.337269 C45.3249989,38.2014615 45.07808,38.0718291 44.7916497,37.9483678 L43.6879111,37.489094 C42.1224217,36.8273414 41.3396888,35.8594192 41.3396888,34.5852985 C41.3396888,33.7260078 41.6680909,33.0074738 42.3249051,32.4296748 C42.9817193,31.8469374 43.7990209,31.5555731 44.7768345,31.5555731 C46.0954012,31.5555731 47.1250531,32.1975623 47.865821,33.4815599 Z M62.3725234,36.3409096 L66.824516,31.7778024 L69.1282925,31.7778024 L63.9577587,36.9557438 L69.1579231,43.215201 L66.8467389,43.215201 L62.7280902,38.1261512 L62.3725234,38.481718 L62.3725234,43.215201 L60.6465429,43.215201 L60.6465429,31.7778024 L62.3725234,31.7778024 L62.3725234,36.3409096 Z M104.638199,32.3926366 L104.638199,34.4371457 C103.640632,33.6025472 102.608511,33.1852543 101.541805,33.1852543 C100.366453,33.1852543 99.3763082,33.6074856 98.5713405,34.451961 C97.7614343,35.2914979 97.3564873,36.3186806 97.3564873,37.5335399 C97.3564873,38.7335838 97.7614343,39.7459514 98.5713405,40.5706729 C99.3812467,41.3953945 100.373861,41.8077491 101.549212,41.8077491 C102.156642,41.8077491 102.672703,41.7089815 103.09741,41.5114434 C103.334455,41.4126744 103.58014,41.2793381 103.83447,41.1114308 C104.0888,40.9435234 104.356707,40.7410499 104.638199,40.5040041 L104.638199,42.5855514 C103.650508,43.1435966 102.613449,43.4226149 101.526989,43.4226149 C99.8923617,43.4226149 98.4972699,42.8522322 97.341672,41.7114497 C96.1910126,40.5607903 95.6156915,39.173106 95.6156915,37.5483552 C95.6156915,36.0915117 96.0971834,34.7927182 97.0601816,33.6519357 C98.2454102,32.2543537 99.7787767,31.5555731 101.660327,31.5555731 C102.687525,31.5555731 103.680139,31.8345915 104.638199,32.3926366 Z M116.57445,37.4446482 C116.57445,35.8347127 117.164586,34.4519668 118.344876,33.2963689 C119.520228,32.140771 120.932604,31.5629808 122.582047,31.5629808 C124.211736,31.5629808 125.609297,32.1457094 126.774772,33.3111842 C127.945185,34.4766589 128.530383,35.8766892 128.530383,37.5113169 C128.530383,39.1558216 127.942716,40.5509135 126.767365,41.6966344 C125.587074,42.8472939 124.162352,43.4226149 122.493155,43.4226149 C121.016558,43.4226149 119.690603,42.9114928 118.515252,41.8892331 C117.221377,40.7583275 116.57445,39.276814 116.57445,37.4446482 Z M118.315245,37.4668711 C118.315245,38.7311149 118.739946,39.7706436 119.58936,40.5854882 C120.433835,41.4003329 121.409165,41.8077491 122.515378,41.8077491 C123.715422,41.8077491 124.72779,41.3929253 125.552511,40.5632653 C126.377233,39.7237284 126.789587,38.7014841 126.789587,37.4965017 C126.789587,36.2767039 126.382171,35.2544596 125.567327,34.4297381 C124.75742,33.600078 123.75493,33.1852543 122.559824,33.1852543 C121.369657,33.1852543 120.364697,33.600078 119.544914,34.4297381 C118.725131,35.2495212 118.315245,36.2618887 118.315245,37.4668711 Z M142.829672,31.7778024 L142.829672,41.5929275 L146.192741,41.5929275 L146.192741,43.215201 L141.103691,43.215201 L141.103691,31.7778024 L142.829672,31.7778024 Z M159.958679,31.7778024 L159.958679,41.5929275 L163.321748,41.5929275 L163.321748,43.215201 L158.232699,43.215201 L158.232699,31.7778024 L159.958679,31.7778024 Z M181.673017,33.4000759 L177.087687,33.4000759 L177.087687,36.1483109 L181.539679,36.1483109 L181.539679,37.7705844 L177.087687,37.7705844 L177.087687,41.5929275 L181.673017,41.5929275 L181.673017,43.215201 L175.361706,43.215201 L175.361706,31.7778024 L181.673017,31.7778024 L181.673017,33.4000759 Z M202.794743,32.3926366 L202.794743,34.4371457 C201.797176,33.6025472 200.765055,33.1852543 199.698349,33.1852543 C198.522997,33.1852543 197.532852,33.6074856 196.727885,34.451961 C195.917978,35.2914979 195.513031,36.3186806 195.513031,37.5335399 C195.513031,38.7335838 195.917978,39.7459514 196.727885,40.5706729 C197.537791,41.3953945 198.530405,41.8077491 199.705757,41.8077491 C200.313186,41.8077491 200.829247,41.7089815 201.253954,41.5114434 C201.490999,41.4126744 201.736684,41.2793381 201.991014,41.1114308 C202.245344,40.9435234 202.513251,40.7410499 202.794743,40.5040041 L202.794743,42.5855514 C201.807053,43.1435966 200.769993,43.4226149 199.683534,43.4226149 C198.048906,43.4226149 196.653814,42.8522322 195.498216,41.7114497 C194.347557,40.5607903 193.772236,39.173106 193.772236,37.5483552 C193.772236,36.0915117 194.253728,34.7927182 195.216726,33.6519357 C196.401954,32.2543537 197.935321,31.5555731 199.816871,31.5555731 C200.844069,31.5555731 201.836683,31.8345915 202.794743,32.3926366 Z M218.531114,33.4000759 L218.531114,43.215201 L216.805134,43.215201 L216.805134,33.4000759 L214.175421,33.4000759 L214.175421,31.7778024 L221.153419,31.7778024 L221.153419,33.4000759 L218.531114,33.4000759 Z M234.823058,31.7778024 L234.823058,43.215201 L233.097078,43.215201 L233.097078,31.7778024 L234.823058,31.7778024 Z M247.403774,37.4446482 C247.403774,35.8347127 247.99391,34.4519668 249.1742,33.2963689 C250.349552,32.140771 251.761928,31.5629808 253.411371,31.5629808 C255.04106,31.5629808 256.438621,32.1457094 257.604096,33.3111842 C258.774509,34.4766589 259.359707,35.8766892 259.359707,37.5113169 C259.359707,39.1558216 258.77204,40.5509135 257.596688,41.6966344 C256.416398,42.8472939 254.991676,43.4226149 253.322479,43.4226149 C251.845882,43.4226149 250.519927,42.9114928 249.344576,41.8892331 C248.050701,40.7583275 247.403774,39.276814 247.403774,37.4446482 Z M249.144569,37.4668711 C249.144569,38.7311149 249.56927,39.7706436 250.418684,40.5854882 C251.263159,41.4003329 252.238489,41.8077491 253.344702,41.8077491 C254.544746,41.8077491 255.557114,41.3929253 256.381835,40.5632653 C257.206557,39.7237284 257.618911,38.7014841 257.618911,37.4965017 C257.618911,36.2767039 257.211495,35.2544596 256.396651,34.4297381 C255.586744,33.600078 254.584254,33.1852543 253.389148,33.1852543 C252.198981,33.1852543 251.194021,33.600078 250.374238,34.4297381 C249.554455,35.2495212 249.144569,36.2618887 249.144569,37.4668711 Z M271.933015,43.215201 L271.933015,31 L280.27402,39.7262018 L280.27402,31.7778024 L282,31.7778024 L282,43.9115193 L273.658996,35.2075404 L273.658996,43.215201 L271.933015,43.215201 Z" id="DESK-COLLECTION"></path>
        </g>
    </g>
</svg>