<?xml version="1.0" encoding="UTF-8"?>
<svg width="29px" height="24px" viewBox="0 0 29 24" version="1.1" xmlns="http://www.w3.org/2000/svg" xmlns:xlink="http://www.w3.org/1999/xlink">
    <!-- Generator: Sketch 43.2 (39069) - http://www.bohemiancoding.com/sketch -->
    <title>Group 2</title>
    <desc>Created with Sketch.</desc>
    <defs></defs>
    <g id="Page-1" stroke="none" stroke-width="1" fill="none" fill-rule="evenodd">
        <g id="Group-2" fill-rule="nonzero" fill="#4A4D51">
            <path d="M16.2036496,23.3333333 L16.2036496,23.3333333 L16.2036496,23.125 C16.2036496,23.3333333 13.9474453,17.5 13.1270073,16.6666667 C11.2810219,14.7916667 9.22992701,15 7.79416058,15 L0.820437956,15 C0.410218978,15 0,15.2083333 0,15.625 L0,15.625 L0,15.8333333 C0,15.8333333 2.25620438,21.6666667 3.07664234,22.2916667 C4.71751825,23.9583333 6.15328467,23.9583333 8.40948905,23.9583333 L15.5883212,23.9583333 C15.9985401,23.9583333 16.2036496,23.75 16.2036496,23.3333333 Z" id="Shape-Copy-2"></path>
            <path d="M28.1,16.0416667 C28.1,11.6666667 23.5875912,2.08333333 22.9722628,0.416666667 C22.9722628,0.208333333 22.7671533,0 22.3569343,0 C22.1518248,0 21.7416058,0.208333333 21.7416058,0.416666667 C18.6649635,7.70833333 16.4087591,13.125 16.4087591,13.125 C16.2036496,13.75 15.9985401,14.375 16.2036496,15 C16.4087591,15.625 17.6394161,18.125 18.459854,20.2083333 C19.6905109,23.125 19.8956204,23.9583333 22.5620438,23.9583333 C25.8437956,23.9583333 28.1,21.0416667 28.1,16.0416667 Z" id="Shape-Copy"></path>
        </g>
    </g>
</svg>