<?xml version="1.0" encoding="UTF-8"?>
<svg width="20px" height="19px" viewBox="0 0 20 19" version="1.1" xmlns="http://www.w3.org/2000/svg" xmlns:xlink="http://www.w3.org/1999/xlink">
    <!-- Generator: Sketch 42 (36781) - http://www.bohemiancoding.com/sketch -->
    <title>logoimg</title>
    <desc>Created with Sketch.</desc>
    <defs></defs>
    <g id="Symbols" stroke="none" stroke-width="1" fill="none" fill-rule="evenodd">
        <g id="footer-mockup" transform="translate(-19.000000, -348.000000)" fill-rule="nonzero" fill="#FFFFFF">
            <g id="footer">
                <g id="logoimg" transform="translate(19.000000, 348.000000)">
                    <path d="M11.1749308,18.1488203 L11.1749308,18.1488203 L11.1749308,17.9867773 C11.1749308,18.1488203 9.61892776,13.6116152 9.05310848,12.9634431 C7.7800151,11.5050557 6.3654669,11.6670988 5.37528316,11.6670988 L0.56581928,11.6670988 C0.28290964,11.6670988 0,11.8291418 0,12.1532279 L0,12.1532279 L0,12.3152709 C0,12.3152709 1.55600302,16.852476 2.1218223,17.3386051 C3.25346086,18.6349494 4.2436446,18.6349494 5.79964762,18.6349494 L10.7505663,18.6349494 C11.033476,18.6349494 11.1749308,18.4729064 11.1749308,18.1488203 Z" id="Shape"></path>
                    <path d="M19.3793103,12.477314 C19.3793103,9.07441016 16.2673043,1.62043039 15.8429398,0.324086077 C15.8429398,0.162043039 15.701485,0 15.4185754,0 C15.2771206,0 14.9942109,0.162043039 14.9942109,0.324086077 C12.8723886,5.99559243 11.3163856,10.2087114 11.3163856,10.2087114 C11.1749308,10.6948405 11.033476,11.1809697 11.1749308,11.6670988 C11.3163856,12.1532279 12.1651145,14.0977444 12.7309338,15.7181747 C13.5796627,17.9867773 13.7211175,18.6349494 15.5600302,18.6349494 C17.8233073,18.6349494 19.3793103,16.3663469 19.3793103,12.477314 Z" id="Shape"></path>
                </g>
            </g>
        </g>
    </g>
</svg>
