<?xml version="1.0" encoding="UTF-8"?>
<svg width="32px" height="32px" viewBox="0 0 32 32" version="1.1" xmlns="http://www.w3.org/2000/svg" xmlns:xlink="http://www.w3.org/1999/xlink">
    <!-- Generator: Sketch 42 (36781) - http://www.bohemiancoding.com/sketch -->
    <title>to the top</title>
    <desc>Created with Sketch.</desc>
    <defs></defs>
    <g id="Symbols" stroke="none" stroke-width="1" fill="none" fill-rule="evenodd">
        <g id="footer-mockup" transform="translate(-704.000000, -29.000000)" fill="#FFFFFF" stroke="#323536">
            <g id="footer">
                <g id="to-the-top" transform="translate(705.000000, 30.000000)">
                    <path d="M15,0 C6.75,0 0,6.75 0,15 C0,23.25 6.75,30 15,30 C23.25,30 30,23.25 30,15 C30,6.75 23.25,0 15,0 L15,0 Z M15,27 C8.4,27 3,21.6 3,15 C3,8.4 8.4,3 15,3 C21.6,3 27,8.4 27,15 C27,21.6 21.6,27 15,27 L15,27 Z" id="Shape"></path>
                    <polygon id="Shape" stroke-width="0.4" transform="translate(15.000000, 14.700000) scale(1, -1) translate(-15.000000, -14.700000) " points="19.6 11 15 15.6 10.4 11 9 12.4 15 18.4 21 12.4"></polygon>
                </g>
            </g>
        </g>
    </g>
</svg>